<svg class="toyplot-canvas-Canvas" xmlns:toyplot="http://www.sandia.gov/toyplot" xmlns:xlink="http://www.w3.org/1999/xlink" xmlns="http://www.w3.org/2000/svg" width="700.0px" height="180.0px" viewBox="0 0 700.0 180.0" preserveAspectRatio="xMidYMid meet" style="background-color:transparent;border-color:#292724;border-style:none;border-width:1.0;fill:rgb(16.1%,15.3%,14.1%);fill-opacity:1.0;font-family:Helvetica;font-size:12px;opacity:1.0;stroke:rgb(16.1%,15.3%,14.1%);stroke-opacity:1.0;stroke-width:1.0" id="t9535e39013b3451aa94c3141f0d2ce4d"><g class="toyplot-coordinates-Cartesian" id="t1f03d1a057ff422fa80acce8c813ba3b"><clipPath id="t5de69742be52409392427908830e7c95"><rect x="30.0" y="30.0" width="640.0" height="120.0" /></clipPath><g clip-path="url(#t5de69742be52409392427908830e7c95)"><g class="toyplot-mark-Range" style="stroke:none" id="t9b3ce25620bb4d499cf974c9c0ce02fb"><g class="toyplot-Series"><rect class="toyplot-Datum" x="469.20729351773156" y="50.0" width="180.79270648226844" height="59.837398373983746" style="fill:rgb(54.5%,0%,0%);fill-opacity:1.0;opacity:0.25;stroke:none" /></g></g><g class="toyplot-mark-Range" style="stroke:none" id="t7bb17fc91c604b8ab22e92fd17749ffa"><g class="toyplot-Series"><rect class="toyplot-Datum" x="376.49308506528627" y="50.0" width="89.62373483736377" height="49.430894308943095" style="fill:rgb(10.2%,53.3%,15.7%);fill-opacity:1.0;opacity:0.25;stroke:none" /></g></g><g class="toyplot-mark-Range" style="stroke:none" id="t299cb382bd0b488cb76d71e43c87f8fd"><g class="toyplot-Series"><rect class="toyplot-Datum" x="129.2551958587654" y="50.0" width="154.5236807540755" height="59.837398373983746" style="fill:rgb(55.3%,62.7%,79.6%);fill-opacity:1.0;opacity:0.25;stroke:none" /></g></g><g class="toytree-mark-Toytree" id="t6203ca81639e436b9c6c41755a57f5b1"><g class="toytree-Edges" style="fill:none;stroke:rgb(14.9%,14.9%,14.9%);stroke-linecap:round;stroke-opacity:1;stroke-width:2"><path d="M 146.6 128.0 L 241.3 128.0 L 241.3 122.8" id="38,37" /><path d="M 241.3 122.8 L 113.3 122.8 L 113.3 117.6" id="37,36" /><path d="M 241.3 122.8 L 369.2 122.8 L 369.2 117.6" id="37,35" /><path d="M 113.3 117.6 L 143.7 117.6 L 143.7 112.4" id="36,34" /><path d="M 369.2 117.6 L 439.3 117.6 L 439.3 112.4" id="35,33" /><path d="M 143.7 112.4 L 173.7 112.4 L 173.7 107.2" id="34,32" /><path d="M 439.3 112.4 L 359.1 112.4 L 359.1 107.2" id="33,31" /><path d="M 439.3 112.4 L 519.4 112.4 L 519.4 107.2" id="33,30" /><path d="M 173.7 107.2 L 202.7 107.2 L 202.7 102.0" id="32,29" /><path d="M 359.1 107.2 L 388.1 107.2 L 388.1 102.0" id="31,28" /><path d="M 519.4 107.2 L 554.2 107.2 L 554.2 102.0" id="30,27" /><path d="M 202.7 102.0 L 229.7 102.0 L 229.7 96.8" id="29,26" /><path d="M 388.1 102.0 L 415.1 102.0 L 415.1 96.8" id="28,25" /><path d="M 554.2 102.0 L 592.8 102.0 L 592.8 96.8" id="27,24" /><path d="M 229.7 96.8 L 252.9 96.8 L 252.9 91.6" id="26,23" /><path d="M 415.1 96.8 L 438.3 96.8 L 438.3 91.6" id="25,22" /><path d="M 592.8 96.8 L 561.9 96.8 L 561.9 91.6" id="24,21" /><path d="M 592.8 96.8 L 623.7 96.8 L 623.7 91.6" id="24,20" /><path d="M 146.6 128.0 L 52.0 128.0 L 52.0 86.4" id="38,19" /><path d="M 113.3 117.6 L 82.9 117.6 L 82.9 86.4" id="36,18" /><path d="M 143.7 112.4 L 113.8 112.4 L 113.8 86.4" id="34,17" /><path d="M 173.7 107.2 L 144.7 107.2 L 144.7 86.4" id="32,16" /><path d="M 202.7 102.0 L 175.6 102.0 L 175.6 86.4" id="29,15" /><path d="M 229.7 96.8 L 206.5 96.8 L 206.5 86.4" id="26,14" /><path d="M 252.9 91.6 L 237.4 91.6 L 237.4 86.4" id="23,13" /><path d="M 252.9 91.6 L 268.3 91.6 L 268.3 86.4" id="23,12" /><path d="M 369.2 117.6 L 299.2 117.6 L 299.2 86.4" id="35,11" /><path d="M 359.1 107.2 L 330.1 107.2 L 330.1 86.4" id="31,10" /><path d="M 388.1 102.0 L 361.0 102.0 L 361.0 86.4" id="28,9" /><path d="M 415.1 96.8 L 391.9 96.8 L 391.9 86.4" id="25,8" /><path d="M 438.3 91.6 L 422.9 91.6 L 422.9 86.4" id="22,7" /><path d="M 438.3 91.6 L 453.8 91.6 L 453.8 86.4" id="22,6" /><path d="M 519.4 107.2 L 484.7 107.2 L 484.7 86.4" id="30,5" /><path d="M 554.2 102.0 L 515.6 102.0 L 515.6 86.4" id="27,4" /><path d="M 561.9 91.6 L 546.5 91.6 L 546.5 86.4" id="21,3" /><path d="M 561.9 91.6 L 577.4 91.6 L 577.4 86.4" id="21,2" /><path d="M 623.7 91.6 L 608.3 91.6 L 608.3 86.4" id="20,1" /><path d="M 623.7 91.6 L 639.2 91.6 L 639.2 86.4" id="20,0" /></g></g></g></g></svg>